<svg width="138" height="112" viewBox="0 0 138 112" fill="none" xmlns="http://www.w3.org/2000/svg">
<path d="M3.74761 1L1.22416 4.01311M3.52345 27.7467L1 30.7598M3.52345 54.4935L1 57.5066M3.52345 81.2402L1 84.2533M3.52345 107.987L1 111M30.2187 1L27.6952 4.01311M29.9945 27.7467L27.4711 30.7598M29.9945 54.4935L27.4711 57.5066M29.9945 81.2402L27.4711 84.2533M29.9945 107.987L27.4711 111M56.914 1L54.3906 4.01311M56.6899 27.7467L54.1664 30.7598M56.6899 54.4935L54.1664 57.5066M56.6899 81.2402L54.1664 84.2533M56.6899 107.987L54.1664 111M83.6094 1L81.086 4.01311M83.3853 27.7467L80.8618 30.7598M83.3853 54.4935L80.8618 57.5066M83.3853 81.2402L80.8618 84.2533M83.3853 107.987L80.8618 111M110.305 1L107.781 4.01311M110.08 27.7467L107.557 30.7598M110.08 54.4935L107.557 57.5066M110.08 81.2402L107.557 84.2533M110.08 107.987L107.557 111M137 1L134.477 4.01311M136.776 27.7467L134.252 30.7598M136.776 54.4935L134.252 57.5066M136.776 81.2402L134.252 84.2533M136.776 107.987L134.252 111" stroke="#2B2B2B" stroke-width="2"/>
</svg>
